<?xml version="1.0" encoding="utf-8"?>
<!-- Generator: Adobe Illustrator 16.0.0, SVG Export Plug-In . SVG Version: 6.00 Build 0)  -->
<!DOCTYPE svg PUBLIC "-//W3C//DTD SVG 1.1//EN" "http://www.w3.org/Graphics/SVG/1.1/DTD/svg11.dtd">
<svg version="1.1" id="Capa_1" xmlns="http://www.w3.org/2000/svg" xmlns:xlink="http://www.w3.org/1999/xlink" x="0px" y="0px"
	 width="841.891px" height="595.281px" viewBox="0 0 841.891 595.281" enable-background="new 0 0 841.891 595.281"
	 xml:space="preserve">
<g>
	<path d="M558.64,237.548c-1.278-3.752-2.741-7.358-4.823-11.068l-3.092-5.4c7.049-9.832,10.944-20.446,10.944-31.557v-63.07
		c0-8.575-2.37-17.272-7.09-25.889l-1.525-2.7c1.979-4.555,3.298-9.213,3.298-14.14c0-51.075-110.189-78.529-213.886-78.529
		c-103.655,0-213.886,27.454-213.886,78.551c0,4.905,1.319,9.584,3.34,14.139l-1.525,2.68c-4.721,8.616-7.091,17.313-7.091,25.889
		v63.092c0,11.026,3.938,21.745,10.945,31.556l-3.134,5.4c-5.193,9.007-7.812,18.015-7.812,27.042v63.092
		c0,10.821,3.669,21.21,10.389,30.959l-2.577,4.432c-5.193,8.925-7.812,18.014-7.812,26.918v63.195
		c0,56.001,96.256,99.966,219.162,99.966c25.167,0,49.117-1.979,71.378-5.359c-1.443-1.855-2.453-4.02-3.793-6.039
		c32.36,36.358,79.272,59.382,131.604,59.382c97.575,0,176.93-79.313,176.93-176.806
		C718.586,321.457,648.177,246.122,558.64,237.548z M342.467,28.589c118.001,0,190.409,32.092,190.409,55.156
		c0,22.981-72.429,55.032-190.409,55.032c-117.959,0-190.409-32.051-190.409-55.032C152.057,60.66,224.508,28.589,342.467,28.589z
		 M146.781,137.005c35.143,29.825,116.702,45.242,195.686,45.242s160.543-15.417,195.727-45.242v52.539
		c0,36.193-80.426,76.571-195.727,76.571s-195.686-40.378-195.686-76.571V137.005z M146.781,257.272
		c36.029,32.979,110.024,53.982,195.686,53.982c20.364,0,39.656-1.566,58.331-3.875c-14.408,19.086-25.291,40.852-31,64.823
		c-1.566,6.513-2.782,13.17-3.669,19.972c-7.812,0.33-15.417,1.011-23.662,1.011c-115.301,0-195.686-40.378-195.686-76.572V257.272z
		 M342.467,518.668c-115.301,0-195.686-40.296-195.686-76.53v-59.382c36.029,32.938,110.024,53.981,195.686,53.981
		c8.162,0,16.057-0.557,23.992-1.01c2.7,21.456,9.213,41.82,18.962,60.144c3.628,6.803,7.854,13.171,12.326,19.396
		C380.391,517.348,361.986,518.668,342.467,518.668z M541.656,554.903c-40.811,0-77.623-17.479-103.49-45.284
		c-5.833-6.162-11.068-12.923-15.747-20.199c-14.14-21.972-22.384-48.106-22.384-76.118c0-0.371,0.082-0.763,0.082-1.175
		c0.041-8.244,0.845-16.304,2.288-24.115c1.277-7.173,3.133-14.181,5.564-21.023c17.231-49.921,61.629-87.166,115.569-94.195
		c5.957-0.721,12.037-1.216,18.117-1.216c1.814,0,3.587,0.247,5.318,0.247c75.644,2.865,136.386,65.092,136.386,141.457
		C683.36,491.378,619.795,554.903,541.656,554.903z"/>
</g>
<g id="XMLID_927_">
	<g id="XMLID_794_">
		<ellipse fill="#5EBAE7" cx="488.364" cy="353.811" rx="7.979" ry="7.793"/>
	</g>
	<g id="XMLID_822_">
		<ellipse fill="#5EBAE7" cx="600.09" cy="353.811" rx="7.98" ry="7.793"/>
	</g>
	<g id="XMLID_856_">
		<ellipse fill="#5EBAE7" cx="655.953" cy="447.327" rx="7.981" ry="7.792"/>
	</g>
	<g id="XMLID_933_">
		<ellipse fill="#5EBAE7" cx="600.09" cy="525.256" rx="7.98" ry="7.792"/>
	</g>
	<g id="XMLID_857_">
		<ellipse fill="#5EBAE7" cx="544.225" cy="447.327" rx="7.982" ry="7.792"/>
	</g>
	<g id="XMLID_858_">
		<ellipse fill="#5EBAE7" cx="436.491" cy="447.327" rx="7.979" ry="7.792"/>
	</g>
	<g id="XMLID_859_">
		<ellipse fill="#89CC86" cx="436.491" cy="384.985" rx="7.979" ry="7.792"/>
	</g>
	<g id="XMLID_928_">
		<ellipse fill="#89CC86" cx="488.364" cy="299.262" rx="7.979" ry="7.792"/>
	</g>
	<g id="XMLID_929_">
		<ellipse fill="#89CC86" cx="544.225" cy="384.985" rx="7.982" ry="7.792"/>
	</g>
	<g id="XMLID_930_">
		<ellipse fill="#89CC86" cx="655.953" cy="384.985" rx="7.981" ry="7.792"/>
	</g>
	<g id="XMLID_931_">
		<ellipse fill="#89CC86" cx="600.09" cy="474.601" rx="7.98" ry="7.793"/>
	</g>
	<g id="XMLID_932_">
		<ellipse fill="#89CC86" cx="488.364" cy="474.601" rx="7.979" ry="7.793"/>
	</g>
	<path fill="#1D1D1B" d="M657.087,435.221v-37.587c5.82-1.321,10.17-6.423,10.17-12.502c0-7.08-5.898-12.839-13.146-12.839
		c-3.394,0-6.488,1.263-8.822,3.329l-33.336-18.795c0.234-0.96,0.363-1.961,0.363-2.992c0-7.077-5.899-12.839-13.147-12.839
		c-7.249,0-13.146,5.762-13.146,12.839c0,0.851,0.087,1.68,0.248,2.484l-33.623,18.959c-2.285-1.862-5.221-2.985-8.421-2.985
		c-3.198,0-6.135,1.123-8.417,2.985l-33.625-18.957c0.161-0.804,0.249-1.636,0.249-2.486c0-5.721-3.854-10.577-9.155-12.231v-29.187
		c5.302-1.654,9.155-6.51,9.155-12.231c0-7.08-5.897-12.839-13.148-12.839c-7.248,0-13.146,5.759-13.146,12.839
		c0,5.722,3.854,10.577,9.158,12.231v29.187c-5.305,1.654-9.158,6.512-9.158,12.232c0,1.03,0.128,2.031,0.365,2.992l-33.335,18.794
		c-2.337-2.066-5.433-3.329-8.823-3.329c-7.251,0-13.148,5.759-13.148,12.839c0,6.079,4.352,11.181,10.172,12.502v37.587
		c-5.82,1.319-10.172,6.424-10.172,12.501c0,7.08,5.897,12.839,13.148,12.839c4.187,0,7.918-1.922,10.328-4.908l31.52,17.77
		c-0.034,0.372-0.055,0.746-0.055,1.126c0,7.078,5.898,12.839,13.146,12.839c7.251,0,13.148-5.761,13.148-12.839
		c0-0.194-0.006-0.386-0.016-0.576l31.808-17.932c2.414,2.763,6,4.521,10.001,4.521c4.003,0,7.59-1.758,10.004-4.521l31.807,17.932
		c-0.009,0.19-0.015,0.383-0.015,0.576c0,5.721,3.854,10.578,9.158,12.231v24.717c-5.305,1.653-9.158,6.51-9.158,12.23
		c0,7.079,5.897,12.84,13.146,12.84c7.248,0,13.147-5.761,13.147-12.84c0-5.721-3.853-10.577-9.157-12.23V486.78
		c5.305-1.653,9.157-6.511,9.157-12.231c0-0.38-0.021-0.754-0.054-1.125l31.519-17.771c2.411,2.986,6.144,4.908,10.329,4.908
		c7.249,0,13.147-5.758,13.147-12.839C667.257,441.645,662.907,436.541,657.087,435.221z M654.11,380.086
		c2.849,0,5.166,2.265,5.166,5.047c0,2.781-2.317,5.044-5.166,5.044c-2.85,0-5.167-2.263-5.167-5.044
		C648.943,382.35,651.262,380.086,654.11,380.086z M599.168,348.79c2.852,0,5.167,2.264,5.167,5.047c0,2.78-2.319,5.044-5.167,5.044
		c-2.849,0-5.167-2.264-5.167-5.044C594.001,351.053,596.319,348.79,599.168,348.79z M544.225,380.086
		c2.852,0,5.167,2.265,5.167,5.047c0,2.781-2.316,5.044-5.167,5.044c-2.848,0-5.166-2.263-5.166-5.044
		C539.059,382.35,541.378,380.086,544.225,380.086z M489.284,295.141c2.851,0,5.167,2.263,5.167,5.045
		c0,2.781-2.316,5.045-5.167,5.045c-2.848,0-5.167-2.264-5.167-5.045C484.117,297.404,486.436,295.141,489.284,295.141z
		 M489.284,348.79c2.851,0,5.167,2.264,5.167,5.047c0,2.78-2.316,5.044-5.167,5.044c-2.848,0-5.167-2.264-5.167-5.044
		C484.117,351.053,486.436,348.79,489.284,348.79z M429.177,385.133c0-2.782,2.317-5.047,5.167-5.047
		c2.849,0,5.166,2.265,5.166,5.047c0,2.781-2.317,5.044-5.166,5.044C431.494,390.177,429.177,387.912,429.177,385.133z
		 M434.344,452.768c-2.851,0-5.168-2.264-5.168-5.046c0-2.78,2.318-5.045,5.168-5.045c2.849,0,5.165,2.265,5.165,5.045
		C439.51,450.505,437.193,452.768,434.344,452.768z M489.284,479.594c-2.848,0-5.167-2.263-5.167-5.045
		c0-2.783,2.319-5.046,5.167-5.046c2.851,0,5.167,2.263,5.167,5.046C494.451,477.331,492.135,479.594,489.284,479.594z
		 M499.578,466.576c-2.411-2.962-6.127-4.866-10.294-4.866c-3.98,0-7.552,1.74-9.964,4.479l-31.843-17.953
		c0.007-0.171,0.014-0.342,0.014-0.514c0-5.348-3.369-9.939-8.143-11.869v-38.853c4.773-1.926,8.143-6.52,8.143-11.868
		c0-0.953-0.11-1.879-0.312-2.772l33.46-18.865c2.314,1.978,5.338,3.18,8.645,3.18c3.501,0,6.682-1.345,9.04-3.529l33.191,18.712
		c-0.284,1.045-0.436,2.143-0.436,3.274c0,5.721,3.853,10.578,9.157,12.231v38.128c-5.305,1.655-9.157,6.514-9.157,12.231
		c0,0.358,0.019,0.714,0.048,1.067L499.578,466.576z M544.225,452.768c-2.848,0-5.166-2.264-5.166-5.046
		c0-2.78,2.318-5.045,5.166-5.045c2.852,0,5.167,2.265,5.167,5.045C549.392,450.505,547.077,452.768,544.225,452.768z
		 M599.168,528.773c-2.849,0-5.167-2.265-5.167-5.046c0-2.783,2.318-5.046,5.167-5.046c2.852,0,5.167,2.263,5.167,5.046
		C604.335,526.509,602.019,528.773,599.168,528.773z M601.553,479.019h-4.77c-1.651-0.843-2.783-2.529-2.783-4.471
		c0-2.783,2.32-5.044,5.168-5.044c2.851,0,5.166,2.261,5.166,5.044C604.335,476.49,603.205,478.177,601.553,479.019z
		 M609.134,466.187c-2.413-2.737-5.984-4.478-9.966-4.478c-4.165,0-7.881,1.904-10.294,4.866l-31.55-17.786
		c0.032-0.354,0.052-0.709,0.052-1.067c0-5.718-3.854-10.576-9.158-12.231v-38.128c5.304-1.653,9.158-6.511,9.158-12.231
		c0-1.132-0.153-2.229-0.437-3.274l33.19-18.712c2.356,2.185,5.541,3.529,9.039,3.529c3.309,0,6.333-1.202,8.647-3.18l33.46,18.865
		c-0.203,0.894-0.313,1.819-0.313,2.772c0,5.349,3.368,9.942,8.143,11.868v38.853c-4.772,1.926-8.143,6.521-8.143,11.869
		c0,0.172,0.008,0.343,0.014,0.514L609.134,466.187z M654.11,452.768c-2.85,0-5.167-2.264-5.167-5.046
		c0-2.78,2.319-5.045,5.167-5.045c2.849,0,5.166,2.265,5.166,5.045C659.276,450.505,656.959,452.768,654.11,452.768z"/>
</g>
</svg>
